<?xml version="1.0"?>
<svg xmlns="http://www.w3.org/2000/svg" xmlns:xlink="http://www.w3.org/1999/xlink" version="1.1" id="Capa_1" x="0px" y="0px" viewBox="0 0 22.88 22.88" style="enable-background:new 0 0 22.88 22.88;" xml:space="preserve" width="512px" height="512px"><g><path d="M0.324,1.909c-0.429-0.429-0.429-1.143,0-1.587c0.444-0.429,1.143-0.429,1.587,0l9.523,9.539  l9.539-9.539c0.429-0.429,1.143-0.429,1.571,0c0.444,0.444,0.444,1.159,0,1.587l-9.523,9.524l9.523,9.539  c0.444,0.429,0.444,1.143,0,1.587c-0.429,0.429-1.143,0.429-1.571,0l-9.539-9.539l-9.523,9.539c-0.444,0.429-1.143,0.429-1.587,0  c-0.429-0.444-0.429-1.159,0-1.587l9.523-9.539L0.324,1.909z" data-original="#1E201D" class="active-path" data-old_color="#1E201D" fill="#7B7B7B"/><style id="stylish-1" class="stylish" type="text/css">.ytp-chrome-bottom {
	opacity: 0;
    transition: 0;
}
.ytp-chrome-bottom:hover {
    background: black; 
	opacity: 1;
}
.ytp-gradient-bottom {
	opacity: 0;
}
.ytp-chrome-top.ytp-share-button-visible {
    opacity: 0;
    transition: 0;
}
.ytp-chrome-top.ytp-share-button-visible:hover {
    background: black;
    opacity: 1;
}
.ytp-gradient-top, .ytp-chrome-top {
	opacity: 0;
}
.ytp-chrome-top:hover {
    opacity: 1;
}</style><style id="stylish-2" class="stylish" type="text/css">.page_block.ui_rmenu.ui_rmenu_pr._ui_rmenu_auto_expand,
.ui_toggler_wrap.hot,
.wall_module.page_block.feed_post_field_wrap,
.page_block.stories_feed_wrap.stories_feed_with_thumb.stories_feed_not_nav_buttons,
.left_menu_nav_wrap,
#l_nwsf,
#chat_onl_wrap,
._post.post.page_block.post--with-likes._ads_block_data_w.mailru-visibility-check.closed_comments.deep_active {
    display: none !important;
}
</style></g> </svg>
